<?xml version="1.0" encoding="UTF-8"?>
<svg id="Layer_1" xmlns="http://www.w3.org/2000/svg" viewBox="0 0 1953 1920">
  <g>
    <rect x="741.09" y="233.61" width="65.83" height="32.41" style="fill: #5e0d86;"/>
    <rect x="806.91" y="298.94" width="32.91" height="65.83" style="fill: #eed3fb;"/>
    <rect x="708.17" y="266.02" width="32.91" height="32.91" style="fill: #5e0d86;"/>
    <rect x="806.91" y="266.02" width="32.91" height="32.91" style="fill: #5e0d86;"/>
    <rect x="642.35" y="430.59" width="32.91" height="32.91" style="fill: #c369f0;"/>
    <polygon points="774 628.07 774 660.98 741.09 660.98 741.09 693.9 708.17 693.9 708.17 660.98 675.26 660.98 675.26 595.16 708.17 595.16 708.17 628.07 774 628.07" style="fill: #eed3fb;"/>
    <rect x="642.35" y="562.24" width="32.91" height="32.91" style="fill: #dca7f6;"/>
    <rect x="839.83" y="364.76" width="32.91" height="65.83" style="fill: #eed3fb;"/>
    <rect x="675.26" y="298.94" width="32.91" height="32.91" style="fill: #5e0d86;"/>
    <rect x="642.35" y="364.76" width="32.91" height="32.91" style="fill: #eed3fb;"/>
    <rect x="839.83" y="430.59" width="32.91" height="65.83" style="fill: #c369f0;"/>
    <rect x="839.83" y="529.33" width="32.91" height="32.91" style="fill: #c369f0;"/>
    <rect x="806.92" y="562.25" width="32.91" height="32.91" style="fill: #c369f0;"/>
    <rect x="708.17" y="595.16" width="98.74" height="32.91" style="fill: #c369f0;"/>
    <rect x="675.26" y="562.24" width="32.91" height="32.91" style="fill: #c369f0;"/>
    <polygon points="675.26 529.33 675.26 562.24 609.43 562.24 609.43 496.42 642.35 496.42 642.35 529.33 675.26 529.33" style="fill: #c369f0;"/>
    <rect x="609.43" y="430.59" width="32.91" height="65.83" style="fill: #dca7f6;"/>
    <rect x="642.35" y="397.68" width="32.91" height="32.91" style="fill: #dca7f6;"/>
    <rect x="675.26" y="364.76" width="32.91" height="32.91" style="fill: #dca7f6;"/>
    <rect x="642.35" y="331.85" width="32.91" height="32.91" style="fill: #5e0d86;"/>
    <rect x="839.83" y="298.94" width="32.91" height="65.83" style="fill: #5e0d86;"/>
    <rect x="872.74" y="430.59" width="32.91" height="65.83" style="fill: #eed3fb;"/>
    <rect x="675.26" y="331.85" width="32.91" height="32.91" style="fill: #eed3fb;"/>
    <rect x="774" y="266.02" width="32.91" height="32.91" style="fill: #eed3fb;"/>
    <polygon points="806.91 298.94 806.91 331.85 741.09 331.85 741.09 364.76 708.17 364.76 708.17 298.94 741.09 298.94 741.09 266.02 774 266.02 774 298.94 806.91 298.94" style="fill: #dca7f6;"/>
    <rect x="609.43" y="562.24" width="32.91" height="32.91" style="fill: #9e17e2;"/>
    <rect x="609.43" y="364.76" width="32.91" height="65.83" style="fill: #5e0d86;"/>
    <rect x="872.74" y="364.76" width="32.91" height="65.83" style="fill: #5e0d86;"/>
    <polygon points="938.57 496.42 938.57 595.16 905.66 595.16 905.66 660.99 872.74 660.99 872.74 693.9 839.83 693.9 839.83 726.81 806.92 726.81 806.92 660.99 839.83 660.99 839.83 595.16 872.74 595.16 872.74 562.25 905.66 562.25 905.66 496.42 938.57 496.42" style="fill: #9e17e2;"/>
    <rect x="741.09" y="660.98" width="65.83" height="65.83" style="fill: #c369f0;"/>
    <rect x="774" y="628.07" width="32.91" height="32.91" style="fill: #dca7f6;"/>
    <rect x="806.91" y="628.07" width="32.91" height="32.91" style="fill: #c369f0;"/>
    <rect x="872.74" y="529.33" width="32.91" height="32.91" style="fill: #eed3fb;"/>
    <rect x="806.91" y="595.16" width="32.91" height="32.91" style="fill: #dca7f6;"/>
    <rect x="839.83" y="562.25" width="32.91" height="32.91" style="fill: #dca7f6;"/>
    <rect x="576.52" y="430.59" width="32.91" height="197.48" style="fill: #5e0d86;"/>
    <polygon points="839.83 364.76 839.83 529.33 708.17 529.33 708.17 496.42 675.26 496.42 675.26 397.68 708.17 397.68 708.17 364.76 741.09 364.76 741.09 331.85 806.91 331.85 806.91 364.76 839.83 364.76" style="fill: #bc57ee;"/>
    <rect x="905.65" y="430.59" width="32.91" height="65.83" style="fill: #5e0d86;"/>
    <polygon points="938.57 693.9 938.57 825.55 905.66 825.55 905.66 858.47 872.74 858.47 872.74 891.38 839.83 891.38 839.83 924.29 806.92 924.29 806.92 957.21 741.09 957.21 741.09 924.29 774 924.29 774 891.38 806.92 891.38 806.92 858.47 839.83 858.47 839.83 825.55 872.74 825.55 872.74 759.73 905.66 759.73 905.66 693.9 938.57 693.9" style="fill: #690f96;"/>
    <rect x="774" y="726.81" width="32.91" height="65.83" style="fill: #9e17e2;"/>
    <polygon points="1103.13 825.55 1103.13 924.29 1070.22 924.29 1070.22 990.12 1037.31 990.12 1037.31 858.46 938.57 858.46 938.57 825.55 971.48 825.55 971.48 792.64 1004.39 792.64 1004.39 759.72 1037.31 759.72 1037.31 792.64 1070.22 792.64 1070.22 825.55 1103.13 825.55" style="fill: #b23eec;"/>
    <rect x="905.66" y="595.16" width="32.91" height="98.74" style="fill: #9e17e2;"/>
    <rect x="839.83" y="496.42" width="32.91" height="32.91" style="fill: #b23eec;"/>
    <rect x="872.74" y="496.42" width="32.91" height="32.91" style="fill: #c369f0;"/>
    <rect x="708.17" y="693.9" width="32.91" height="32.91" style="fill: #dca7f6;"/>
    <rect x="1234.79" y="891.38" width="32.91" height="65.83" style="fill: #430a5f;"/>
    <rect x="1037.31" y="990.12" width="32.91" height="65.83" style="fill: #b94fed;"/>
    <polygon points="1037.31 1121.77 1037.31 1187.6 1004.39 1187.6 1004.39 1154.68 971.48 1154.68 971.48 1121.77 1037.31 1121.77" style="fill: #dca7f6;"/>
    <rect x="1004.39" y="1187.6" width="32.91" height="65.83" style="fill: #fff;"/>
    <polygon points="1004.39 1187.6 1004.39 1253.42 971.48 1253.42 971.48 1220.51 938.57 1220.51 938.57 1253.42 872.74 1253.42 872.74 1187.6 905.65 1187.6 905.65 1154.68 971.48 1154.68 971.48 1187.6 1004.39 1187.6" style="fill: #bc57ee;"/>
    <rect x="872.74" y="1253.42" width="65.83" height="32.91" style="fill: #b23eec;"/>
    <rect x="938.57" y="1220.51" width="32.91" height="32.91" style="fill: #b23eec;"/>
    <rect x="938.57" y="1253.42" width="32.91" height="32.91" style="fill: #bc57ee;"/>
    <rect x="839.83" y="1187.6" width="32.91" height="65.83" style="fill: #c369f0;"/>
    <polygon points="872.74 1253.42 872.74 1286.34 839.83 1286.34 839.83 1319.25 806.91 1319.25 806.91 1187.6 839.83 1187.6 839.83 1253.42 872.74 1253.42" style="fill: #dca7f6;"/>
    <rect x="708.17" y="1286.34" width="32.91" height="32.91" style="fill: #b23eec;"/>
    <polygon points="806.91 1220.51 806.91 1286.34 741.09 1286.34 741.09 1253.42 774 1253.42 774 1220.51 806.91 1220.51" style="fill: #b23eec;"/>
    <rect x="741.09" y="1352.16" width="32.91" height="32.91" style="fill: #b23eec;"/>
    <rect x="938.57" y="1385.08" width="32.91" height="32.91" style="fill: #690f96;"/>
    <rect x="774" y="1319.25" width="32.91" height="32.91" style="fill: #b23eec;"/>
    <rect x="675.26" y="1385.08" width="32.91" height="32.91" style="fill: #b23eec;"/>
    <rect x="774" y="1023.03" width="32.91" height="98.74" style="fill: #430a5f;"/>
    <rect x="905.65" y="1417.99" width="32.91" height="32.91" style="fill: #690f96;"/>
    <polygon points="872.74 1121.77 872.74 1154.69 839.83 1154.69 839.83 1187.6 806.92 1187.6 806.92 1121.77 872.74 1121.77" style="fill: #430a5f;"/>
    <rect x="872.74" y="1450.9" width="32.91" height="32.91" style="fill: #690f96;"/>
    <rect x="806.91" y="1483.82" width="32.91" height="32.91" style="fill: #430a5f;"/>
    <rect x="741.09" y="1417.99" width="32.91" height="32.91" style="fill: #430a5f;"/>
    <rect x="708.17" y="1385.08" width="32.91" height="32.91" style="fill: #430a5f;"/>
    <rect x="675.26" y="1352.16" width="32.91" height="32.91" style="fill: #430a5f;"/>
    <rect x="675.26" y="1286.34" width="32.91" height="32.91" style="fill: #430a5f;"/>
    <rect x="708.17" y="1253.42" width="32.91" height="32.91" style="fill: #430a5f;"/>
    <rect x="741.09" y="1220.51" width="32.91" height="32.91" style="fill: #430a5f;"/>
    <rect x="971.48" y="1549.64" width="65.83" height="32.91" style="fill: #430a5f;"/>
    <rect x="346.13" y="1483.82" width="32.91" height="32.91" style="fill: #430a5f;"/>
    <rect x="379.04" y="1516.73" width="32.91" height="32.91" style="fill: #430a5f;"/>
    <rect x="477.78" y="1582.56" width="131.65" height="32.91" style="fill: #430a5f;"/>
    <rect x="411.95" y="1549.64" width="65.83" height="32.91" style="fill: #430a5f;"/>
    <rect x="609.43" y="1549.64" width="32.91" height="32.91" style="fill: #430a5f;"/>
    <rect x="576.52" y="1516.73" width="32.91" height="32.91" style="fill: #430a5f;"/>
    <rect x="543.61" y="1483.82" width="32.91" height="32.91" style="fill: #430a5f;"/>
    <rect x="510.69" y="1450.9" width="32.91" height="32.91" style="fill: #430a5f;"/>
    <rect x="477.78" y="1319.25" width="32.91" height="131.65" style="fill: #430a5f;"/>
    <rect x="642.35" y="1582.56" width="32.91" height="32.91" style="fill: #430a5f;"/>
    <rect x="872.74" y="1516.73" width="32.91" height="65.83" style="fill: #690f96;"/>
    <polygon points="971.48 1582.56 971.48 1615.47 872.74 1615.47 872.74 1648.39 675.26 1648.39 675.26 1615.47 806.91 1615.47 806.91 1582.56 839.83 1582.56 839.83 1516.73 872.74 1516.73 872.74 1582.56 905.65 1582.56 905.65 1516.73 938.57 1516.73 938.57 1582.56 971.48 1582.56" style="fill: #430a5f;"/>
    <rect x="1037.31" y="1516.73" width="65.83" height="32.91" style="fill: #430a5f;"/>
    <rect x="1103.13" y="1483.82" width="65.83" height="32.91" style="fill: #430a5f;"/>
    <rect x="1168.96" y="1450.9" width="65.83" height="32.91" style="fill: #430a5f;"/>
    <rect x="1037.31" y="1483.82" width="65.83" height="32.91" style="fill: #9e17e2;"/>
    <rect x="510.69" y="1319.25" width="164.57" height="32.91" style="fill: #5e0d86;"/>
    <polygon points="510.69 1187.6 510.69 1319.25 477.78 1319.25 477.78 1286.34 444.87 1286.34 444.87 1253.42 411.95 1253.42 411.95 1220.51 379.04 1220.51 379.04 1154.68 346.13 1154.68 346.13 1121.77 444.87 1121.77 444.87 1154.68 477.78 1154.68 477.78 1187.6 510.69 1187.6" style="fill: #690f96;"/>
    <rect x="642.35" y="1549.64" width="32.91" height="32.91" style="fill: #7e12b5;"/>
    <rect x="477.78" y="1549.64" width="65.83" height="32.91" style="fill: #9e17e2;"/>
    <rect x="411.95" y="1516.73" width="65.83" height="32.91" style="fill: #9e17e2;"/>
    <rect x="379.04" y="1483.82" width="32.91" height="32.91" style="fill: #9e17e2;"/>
    <rect x="346.13" y="1450.9" width="32.91" height="32.91" style="fill: #9e17e2;"/>
    <rect x="708.17" y="1121.77" width="32.91" height="98.74" style="fill: #7e12b5;"/>
    <rect x="444.87" y="1450.9" width="32.91" height="32.91" style="fill: #b23eec;"/>
    <rect x="411.95" y="1417.99" width="32.91" height="32.91" style="fill: #b23eec;"/>
    <rect x="642.35" y="1352.16" width="32.91" height="32.91" style="fill: #b23eec;"/>
    <polygon points="642.35 1121.77 642.35 1319.25 609.43 1319.25 609.43 1187.6 576.52 1187.6 576.52 1121.77 642.35 1121.77" style="fill: #b23eec;"/>
    <rect x="675.26" y="1319.25" width="32.91" height="32.91" style="fill: #b23eec;"/>
    <rect x="576.52" y="1450.9" width="32.91" height="32.91" style="fill: #b23eec;"/>
    <polygon points="642.35 1417.99 642.35 1483.82 609.43 1483.82 609.43 1450.9 576.52 1450.9 576.52 1417.99 543.61 1417.99 543.61 1385.08 609.43 1385.08 609.43 1417.99 642.35 1417.99" style="fill: #bc57ee;"/>
    <rect x="543.61" y="1450.9" width="32.91" height="32.91" style="fill: #c369f0;"/>
    <rect x="576.52" y="1483.82" width="65.83" height="32.91" style="fill: #c369f0;"/>
    <rect x="609.43" y="1385.08" width="32.91" height="32.91" style="fill: #c369f0;"/>
    <polygon points="642.35 1352.16 642.35 1385.08 543.61 1385.08 543.61 1450.9 510.69 1450.9 510.69 1352.16 642.35 1352.16" style="fill: #dca7f6;"/>
    <rect x="642.35" y="1286.34" width="32.91" height="32.91" style="fill: #9115cf;"/>
    <rect x="1037.31" y="1319.25" width="32.91" height="32.91" style="fill: #690f96;"/>
    <polygon points="1136.05 1253.42 1136.05 1286.34 1103.13 1286.34 1103.13 1319.25 1070.22 1319.25 1070.22 1253.42 1136.05 1253.42" style="fill: #690f96;"/>
    <polygon points="1333.53 1319.25 1333.53 1352.16 1300.61 1352.16 1300.61 1385.08 1267.7 1385.08 1267.7 1417.99 1168.96 1417.99 1168.96 1450.9 1103.13 1450.9 1103.13 1483.82 1037.31 1483.82 1037.31 1516.73 971.48 1516.73 971.48 1450.9 1004.39 1450.9 1004.39 1417.99 1070.22 1417.99 1070.22 1385.08 1136.05 1385.08 1136.05 1352.16 1267.7 1352.16 1267.7 1319.25 1333.53 1319.25" style="fill: #690f96;"/>
    <rect x="1168.96" y="1417.99" width="65.83" height="32.91" style="fill: #9e17e2;"/>
    <rect x="1103.13" y="1450.9" width="65.83" height="32.91" style="fill: #9e17e2;"/>
    <polygon points="1168.96 1253.42 1168.96 1352.16 1136.05 1352.16 1136.05 1385.08 1070.22 1385.08 1070.22 1417.99 1004.39 1417.99 1004.39 1385.08 1037.31 1385.08 1037.31 1352.16 1070.22 1352.16 1070.22 1319.25 1103.13 1319.25 1103.13 1286.34 1136.05 1286.34 1136.05 1253.42 1168.96 1253.42" style="fill: #9e17e2;"/>
    <polygon points="1333.53 1286.34 1333.53 1319.25 1201.87 1319.25 1201.87 1286.34 1168.96 1286.34 1168.96 1253.42 1234.79 1253.42 1234.79 1286.34 1333.53 1286.34" style="fill: #c369f0;"/>
    <polygon points="1267.7 1319.25 1267.7 1352.16 1168.96 1352.16 1168.96 1286.34 1201.87 1286.34 1201.87 1319.25 1267.7 1319.25" style="fill: #dca7f6;"/>
    <polygon points="1234.79 660.98 1234.79 759.72 1201.87 759.72 1201.87 825.55 1136.05 825.55 1136.05 792.64 1103.13 792.64 1103.13 693.9 1136.05 693.9 1136.05 660.98 1234.79 660.98" style="fill: #bc57ee;"/>
    <polygon points="1300.61 726.81 1300.61 792.64 1267.7 792.64 1267.7 825.55 1234.79 825.55 1234.79 858.46 1201.87 858.46 1201.87 792.64 1234.79 792.64 1234.79 759.72 1267.7 759.72 1267.7 726.81 1300.61 726.81" style="fill: #c369f0;"/>
    <polygon points="1300.61 595.16 1300.61 726.81 1267.7 726.81 1267.7 628.07 1201.87 628.07 1201.87 595.16 1300.61 595.16" style="fill: #dca7f6;"/>
    <rect x="1333.53" y="1286.34" width="32.91" height="65.83" style="fill: #430a5f;"/>
    <rect x="1300.61" y="595.16" width="32.91" height="197.48" style="fill: #5e0d86;"/>
    <rect x="1168.96" y="628.07" width="32.91" height="32.91" style="fill: #dca7f6;"/>
    <rect x="1136.05" y="628.07" width="32.91" height="32.91" style="fill: #eed3fb;"/>
    <rect x="1234.79" y="825.55" width="32.91" height="32.91" style="fill: #9e17e2;"/>
    <rect x="1234.79" y="858.46" width="32.91" height="32.91" style="fill: #b23eec;"/>
    <rect x="1300.61" y="1352.16" width="32.91" height="32.91" style="fill: #430a5f;"/>
    <rect x="1267.7" y="792.64" width="32.91" height="65.83" style="fill: #5e0d86;"/>
    <rect x="1201.87" y="562.24" width="98.74" height="32.91" style="fill: #5e0d86;"/>
    <rect x="1234.79" y="1253.42" width="65.83" height="32.91" style="fill: #b23eec;"/>
    <rect x="1267.7" y="1385.08" width="32.91" height="32.91" style="fill: #430a5f;"/>
    <rect x="1267.7" y="858.46" width="32.91" height="32.91" style="fill: #430a5f;"/>
    <rect x="1234.79" y="660.98" width="32.91" height="98.74" style="fill: #b23eec;"/>
    <rect x="1201.87" y="628.07" width="65.83" height="32.91" style="fill: #c369f0;"/>
    <polygon points="1399.35 1154.68 1399.35 1286.34 1366.44 1286.34 1366.44 1187.6 1267.7 1187.6 1267.7 1154.68 1399.35 1154.68" style="fill: #5e0d86;"/>
    <rect x="1168.96" y="1187.6" width="65.83" height="32.91" style="fill: #430a5f;"/>
    <rect x="1136.05" y="1088.86" width="32.91" height="65.83" style="fill: #430a5f;"/>
    <polygon points="1300.61 1023.03 1300.61 1121.77 1267.7 1121.77 1267.7 1154.68 1234.79 1154.68 1234.79 1187.6 1168.96 1187.6 1168.96 1220.51 1136.05 1220.51 1136.05 1154.68 1168.96 1154.68 1168.96 1088.86 1201.87 1088.86 1201.87 1023.03 1300.61 1023.03" style="fill: #690f96;"/>
    <polygon points="1070.22 1088.86 1070.22 1220.51 1037.31 1220.51 1037.31 1121.77 872.74 1121.77 872.74 1088.86 1070.22 1088.86" style="fill: #690f96;"/>
    <rect x="839.83" y="924.29" width="32.91" height="32.91" style="fill: #690f96;"/>
    <rect x="1070.22" y="1055.94" width="32.91" height="164.57" style="fill: #7e12b5;"/>
    <rect x="1168.96" y="1220.51" width="32.91" height="32.91" style="fill: #9e17e2;"/>
    <polygon points="1366.44 1187.6 1366.44 1286.34 1333.53 1286.34 1333.53 1220.51 1300.61 1220.51 1300.61 1187.6 1366.44 1187.6" style="fill: #c369f0;"/>
    <rect x="1201.87" y="1220.51" width="32.91" height="32.91" style="fill: #dca7f6;"/>
    <polygon points="1333.53 1220.51 1333.53 1286.34 1300.61 1286.34 1300.61 1253.42 1234.79 1253.42 1234.79 1220.51 1333.53 1220.51" style="fill: #bb57ee;"/>
    <rect x="1234.79" y="1187.6" width="65.83" height="32.91" style="fill: #dca7f6;"/>
    <rect x="1234.79" y="1417.99" width="32.91" height="32.91" style="fill: #430a5f;"/>
    <rect x="1267.7" y="1121.77" width="32.91" height="32.91" style="fill: #430a5f;"/>
    <rect x="1234.79" y="1154.68" width="32.91" height="32.91" style="fill: #430a5f;"/>
    <rect x="1201.87" y="759.72" width="32.91" height="32.91" style="fill: #b23eec;"/>
    <rect x="1136.05" y="595.16" width="65.83" height="32.91" style="fill: #5e0d86;"/>
    <polygon points="1333.53 990.12 1333.53 1121.77 1300.61 1121.77 1300.61 1023.03 1201.87 1023.03 1201.87 957.2 1234.79 957.2 1234.79 990.12 1333.53 990.12" style="fill: #430a5f;"/>
    <rect x="1168.96" y="1023.03" width="32.91" height="65.83" style="fill: #430a5f;"/>
    <polygon points="1168.96 1220.51 1168.96 1253.42 1070.22 1253.42 1070.22 1319.25 1037.31 1319.25 1037.31 1220.51 1103.13 1220.51 1103.13 1154.68 1136.05 1154.68 1136.05 1220.51 1168.96 1220.51" style="fill: #430a5f;"/>
    <rect x="1136.05" y="924.29" width="32.91" height="65.83" style="fill: #7e12b5;"/>
    <rect x="1103.13" y="628.07" width="32.91" height="32.91" style="fill: #5e0d86;"/>
    <rect x="1103.13" y="990.12" width="32.91" height="65.83" style="fill: #7e12b5;"/>
    <rect x="1168.96" y="825.55" width="32.91" height="32.91" style="fill: #dca7f6;"/>
    <polygon points="1234.79 858.46 1234.79 957.2 1201.87 957.2 1201.87 1023.03 1168.96 1023.03 1168.96 1088.86 1136.05 1088.86 1136.05 1154.68 1103.13 1154.68 1103.13 1055.94 1136.05 1055.94 1136.05 990.12 1168.96 990.12 1168.96 924.29 1136.05 924.29 1136.05 858.46 1234.79 858.46" style="fill: #9e17e2;"/>
    <rect x="1004.39" y="858.46" width="32.91" height="32.91" style="fill: #b94fed;"/>
    <polygon points="1037.31 957.2 1037.31 990.12 1004.39 990.12 1004.39 1023.03 971.48 1023.03 971.48 990.12 938.57 990.12 938.57 957.2 971.48 957.2 971.48 924.29 1004.39 924.29 1004.39 957.2 1037.31 957.2" style="fill: #daa4f6;"/>
    <rect x="1103.13" y="792.64" width="32.91" height="32.91" style="fill: #e3b8f8;"/>
    <rect x="1103.13" y="660.98" width="32.91" height="32.91" style="fill: #dca7f6;"/>
    <rect x="1070.22" y="660.98" width="32.91" height="32.91" style="fill: #5e0d86;"/>
    <rect x="1103.13" y="825.55" width="65.83" height="32.91" style="fill: #eed3fb;"/>
    <rect x="1103.13" y="858.46" width="32.91" height="65.83" style="fill: #b94fed;"/>
    <rect x="1103.13" y="924.29" width="32.91" height="65.83" style="fill: #9e17e2;"/>
    <rect x="1037.31" y="693.9" width="32.91" height="32.91" style="fill: #5e0d86;"/>
    <rect x="1070.22" y="924.29" width="32.91" height="65.83" style="fill: #b94fed;"/>
    <rect x="1070.22" y="990.12" width="32.91" height="65.83" style="fill: #9e17e2;"/>
    <rect x="1070.22" y="792.64" width="32.91" height="32.91" style="fill: #eed3fb;"/>
    <rect x="1070.22" y="693.9" width="32.91" height="98.74" style="fill: #e3b8f8;"/>
    <rect x="1037.31" y="726.81" width="32.91" height="65.83" style="fill: #dca7f6;"/>
    <rect x="1004.39" y="726.81" width="32.91" height="32.91" style="fill: #5e0d86;"/>
    <rect x="1037.31" y="1055.94" width="32.91" height="32.91" style="fill: #9e17e2;"/>
    <rect x="1004.39" y="1319.25" width="32.91" height="65.83" style="fill: #430a5f;"/>
    <rect x="971.48" y="759.72" width="32.91" height="32.91" style="fill: #5e0d86;"/>
    <rect x="971.48" y="1154.68" width="32.91" height="32.91" style="fill: #c369f0;"/>
    <rect x="938.57" y="496.42" width="32.91" height="329.13" style="fill: #5e0d86;"/>
    <rect x="971.48" y="1385.08" width="32.91" height="65.83" style="fill: #430a5f;"/>
    <rect x="971.48" y="1516.73" width="65.83" height="32.91" style="fill: #9e17e2;"/>
    <rect x="938.57" y="1516.73" width="32.91" height="65.83" style="fill: #690f96;"/>
    <rect x="938.57" y="1417.99" width="32.91" height="32.91" style="fill: #7e12b5;"/>
    <rect x="938.57" y="1450.9" width="32.91" height="65.83" style="fill: #430a5f;"/>
    <rect x="905.65" y="825.55" width="32.91" height="32.91" style="fill: #430a5f;"/>
    <polygon points="1037.31 891.38 1037.31 957.2 1004.39 957.2 1004.39 924.29 971.48 924.29 971.48 957.2 938.57 957.2 938.57 858.46 1004.39 858.46 1004.39 891.38 1037.31 891.38" style="fill: #9e17e2;"/>
    <polygon points="938.57 858.46 938.57 990.12 905.65 990.12 905.65 1088.86 872.74 1088.86 872.74 1121.77 806.91 1121.77 806.91 1023.03 774 1023.03 774 990.12 839.83 990.12 839.83 957.2 872.74 957.2 872.74 924.29 905.65 924.29 905.65 858.46 938.57 858.46" style="fill: #7e12b5;"/>
    <rect x="1004.39" y="1055.94" width="32.91" height="32.91" style="fill: #b94fed;"/>
    <polygon points="1037.31 990.12 1037.31 1055.94 1004.39 1055.94 1004.39 1088.86 971.48 1088.86 971.48 1023.03 1004.39 1023.03 1004.39 990.12 1037.31 990.12" style="fill: #b23eec;"/>
    <rect x="905.65" y="990.12" width="65.83" height="98.74" style="fill: #9e17e2;"/>
    <rect x="872.74" y="858.46" width="32.91" height="32.91" style="fill: #430a5f;"/>
    <rect x="872.74" y="891.38" width="32.91" height="32.91" style="fill: #690f96;"/>
    <rect x="905.65" y="1450.9" width="32.91" height="32.91" style="fill: #7e12b5;"/>
    <rect x="905.65" y="1483.82" width="32.91" height="32.91" style="fill: #690f96;"/>
    <polygon points="905.66 660.99 905.66 759.73 872.74 759.73 872.74 825.55 839.83 825.55 839.83 858.47 806.92 858.47 806.92 891.38 774 891.38 774 792.64 806.92 792.64 806.92 726.81 839.83 726.81 839.83 693.9 872.74 693.9 872.74 660.99 905.66 660.99" style="fill: #7e12b5;"/>
    <rect x="872.74" y="1483.82" width="32.91" height="32.91" style="fill: #7e12b5;"/>
    <rect x="839.83" y="1483.82" width="32.91" height="32.91" style="fill: #690f96;"/>
    <rect x="872.74" y="1121.77" width="98.74" height="32.91" style="fill: #fff;"/>
    <rect x="839.83" y="1154.68" width="32.91" height="32.91" style="fill: #fff;"/>
    <rect x="872.74" y="1154.68" width="32.91" height="32.91" style="fill: #c369f0;"/>
    <rect x="839.83" y="891.38" width="32.91" height="32.91" style="fill: #430a5f;"/>
    <polygon points="938.57 1352.16 938.57 1417.99 905.65 1417.99 905.65 1450.9 872.74 1450.9 872.74 1483.82 806.91 1483.82 806.91 1417.99 872.74 1417.99 872.74 1352.16 938.57 1352.16" style="fill: #7e12b5;"/>
    <rect x="839.83" y="1385.08" width="32.91" height="32.91" style="fill: #a31ae8;"/>
    <rect x="806.91" y="924.29" width="32.91" height="32.91" style="fill: #430a5f;"/>
    <polygon points="839.83 529.33 839.83 562.24 806.91 562.24 806.91 595.16 708.17 595.16 708.17 562.24 675.26 562.24 675.26 529.33 642.35 529.33 642.35 463.5 675.26 463.5 675.26 496.42 708.17 496.42 708.17 529.33 839.83 529.33" style="fill: #b23eec;"/>
    <rect x="774" y="957.2" width="32.91" height="32.91" style="fill: #430a5f;"/>
    <rect x="806.91" y="957.2" width="32.91" height="32.91" style="fill: #690f96;"/>
    <rect x="774" y="1450.9" width="32.91" height="32.91" style="fill: #430a5f;"/>
    <rect x="774" y="1187.6" width="32.91" height="32.91" style="fill: #430a5f;"/>
    <rect x="905.65" y="1286.34" width="65.83" height="32.91" style="fill: #dca7f6;"/>
    <rect x="971.48" y="1253.42" width="32.91" height="32.91" style="fill: #dca7f6;"/>
    <rect x="839.83" y="1286.34" width="65.83" height="32.91" style="fill: #dca7f6;"/>
    <rect x="806.91" y="1319.25" width="32.91" height="32.91" style="fill: #dca7f6;"/>
    <rect x="741.09" y="1385.08" width="32.91" height="32.91" style="fill: #dca7f6;"/>
    <rect x="774" y="1352.16" width="32.91" height="32.91" style="fill: #dca7f6;"/>
    <polygon points="1037.31 1253.42 1037.31 1319.25 1004.39 1319.25 1004.39 1385.08 938.57 1385.08 938.57 1352.16 872.74 1352.16 872.74 1385.08 839.83 1385.08 839.83 1417.99 806.91 1417.99 806.91 1450.9 774 1450.9 774 1385.08 806.91 1385.08 806.91 1352.16 839.83 1352.16 839.83 1319.25 971.48 1319.25 971.48 1286.34 1004.39 1286.34 1004.39 1253.42 1037.31 1253.42" style="fill: #9115cf;"/>
    <polygon points="806.91 1286.34 806.91 1319.25 774 1319.25 774 1352.16 741.09 1352.16 741.09 1385.08 708.17 1385.08 708.17 1319.25 741.09 1319.25 741.09 1286.34 806.91 1286.34" style="fill: #a31ae8;"/>
    <polygon points="839.83 1516.73 839.83 1582.56 806.91 1582.56 806.91 1615.47 741.09 1615.47 741.09 1582.56 774 1582.56 774 1549.64 806.91 1549.64 806.91 1516.73 839.83 1516.73" style="fill: #690f96;"/>
    <rect x="675.26" y="1582.56" width="65.83" height="32.91" style="fill: #7e12b5;"/>
    <rect x="774" y="1483.82" width="32.91" height="32.91" style="fill: #bc57ee;"/>
    <rect x="741.09" y="1549.64" width="32.91" height="32.91" style="fill: #bc57ee;"/>
    <rect x="741.09" y="1450.9" width="32.91" height="32.91" style="fill: #bc57ee;"/>
    <polygon points="806.91 1516.73 806.91 1549.64 741.09 1549.64 741.09 1582.56 675.26 1582.56 675.26 1516.73 708.17 1516.73 708.17 1417.99 741.09 1417.99 741.09 1483.82 774 1483.82 774 1516.73 806.91 1516.73" style="fill: #b23eec;"/>
    <rect x="642.35" y="595.16" width="32.91" height="65.83" style="fill: #9e17e2;"/>
    <rect x="642.35" y="1417.99" width="32.91" height="65.83" style="fill: #c369f0;"/>
    <rect x="642.35" y="1385.08" width="32.91" height="32.91" style="fill: #dca7f6;"/>
    <polygon points="708.17 1417.99 708.17 1516.73 675.26 1516.73 675.26 1549.64 609.43 1549.64 609.43 1516.73 642.35 1516.73 642.35 1483.82 675.26 1483.82 675.26 1417.99 708.17 1417.99" style="fill: #dca7f6;"/>
    <rect x="543.61" y="1417.99" width="32.91" height="32.91" style="fill: #b23eec;"/>
    <polygon points="477.78 1319.25 477.78 1450.9 444.87 1450.9 444.87 1417.99 411.95 1417.99 411.95 1286.34 444.87 1286.34 444.87 1319.25 477.78 1319.25" style="fill: #7e12b5;"/>
    <rect x="379.04" y="595.16" width="32.91" height="32.91" style="fill: #5e0d86;"/>
    <rect x="411.95" y="628.07" width="32.91" height="32.91" style="fill: #5e0d86;"/>
    <rect x="444.87" y="660.98" width="32.91" height="32.91" style="fill: #5e0d86;"/>
    <rect x="477.78" y="693.9" width="32.91" height="32.91" style="fill: #5e0d86;"/>
    <polygon points="576.52 628.07 576.52 825.55 543.61 825.55 543.61 759.72 510.69 759.72 510.69 726.81 543.61 726.81 543.61 628.07 576.52 628.07" style="fill: #5e0d86;"/>
    <rect x="313.21" y="562.24" width="65.83" height="32.91" style="fill: #5e0d86;"/>
    <polygon points="708.18 792.64 708.18 858.47 675.26 858.47 675.26 825.55 576.52 825.55 576.52 792.64 609.44 792.64 609.44 759.73 675.26 759.73 675.26 792.64 708.18 792.64" style="fill: #9e17e2;"/>
    <rect x="741.09" y="825.55" width="32.91" height="98.74" style="fill: #9e17e2;"/>
    <rect x="708.17" y="726.81" width="32.91" height="65.83" style="fill: #9e17e2;"/>
    <rect x="675.26" y="660.98" width="32.91" height="65.83" style="fill: #9e17e2;"/>
    <polygon points="543.61 759.72 543.61 825.55 477.78 825.55 477.78 957.2 444.87 957.2 444.87 891.38 411.95 891.38 411.95 792.64 444.87 792.64 444.87 693.9 477.78 693.9 477.78 726.81 510.69 726.81 510.69 759.72 543.61 759.72" style="fill: #b23eec;"/>
    <polygon points="346.13 759.72 346.13 792.64 280.3 792.64 280.3 759.72 247.39 759.72 247.39 726.81 214.47 726.81 214.47 628.07 247.39 628.07 247.39 693.9 280.3 693.9 280.3 726.81 313.21 726.81 313.21 759.72 346.13 759.72" style="fill: #b23eec;"/>
    <rect x="148.65" y="562.24" width="32.91" height="230.39" style="fill: #5e0d86;"/>
    <rect x="181.56" y="529.33" width="131.65" height="32.91" style="fill: #5e0d86;"/>
    <rect x="313.21" y="660.98" width="32.91" height="32.91" style="fill: #c369f0;"/>
    <polygon points="379.04 660.98 379.04 759.72 313.21 759.72 313.21 726.81 280.3 726.81 280.3 693.9 247.39 693.9 247.39 628.07 346.13 628.07 346.13 660.98 313.21 660.98 313.21 693.9 346.13 693.9 346.13 660.98 379.04 660.98" style="fill: #bc57ee;"/>
    <rect x="411.95" y="726.81" width="32.91" height="65.83" style="fill: #dca7f6;"/>
    <rect x="411.95" y="660.98" width="32.91" height="32.91" style="fill: #dca7f6;"/>
    <rect x="411.95" y="693.9" width="32.91" height="32.91" style="fill: #e3b8f8;"/>
    <polygon points="411.95 660.98 411.95 792.64 379.04 792.64 379.04 825.55 313.21 825.55 313.21 792.64 346.13 792.64 346.13 759.72 379.04 759.72 379.04 660.98 411.95 660.98" style="fill: #c369f0;"/>
    <rect x="379.04" y="628.07" width="32.91" height="32.91" style="fill: #e3b8f8;"/>
    <rect x="346.13" y="628.07" width="32.91" height="32.91" style="fill: #c369f0;"/>
    <rect x="181.56" y="562.24" width="32.91" height="65.83" style="fill: #dca7f6;"/>
    <rect x="214.47" y="595.16" width="98.74" height="32.91" style="fill: #c369f0;"/>
    <rect x="313.21" y="595.16" width="65.83" height="32.91" style="fill: #e3b8f8;"/>
    <rect x="214.47" y="562.24" width="98.74" height="32.91" style="fill: #e3b8f8;"/>
    <rect x="181.56" y="1220.51" width="32.91" height="131.65" style="fill: #5e0d86;"/>
    <rect x="148.65" y="792.64" width="32.91" height="32.91" style="fill: #430a5f;"/>
    <rect x="181.56" y="792.64" width="32.91" height="32.91" style="fill: #b23eec;"/>
    <rect x="181.56" y="825.55" width="32.91" height="65.83" style="fill: #430a5f;"/>
    <rect x="214.47" y="891.38" width="32.91" height="65.83" style="fill: #430a5f;"/>
    <rect x="247.39" y="957.2" width="32.91" height="65.83" style="fill: #430a5f;"/>
    <polygon points="313.21 1023.03 313.21 1088.86 247.39 1088.86 247.39 1154.68 214.47 1154.68 214.47 1055.94 280.3 1055.94 280.3 1023.03 313.21 1023.03" style="fill: #430a5f;"/>
    <polygon points="379.04 1154.68 379.04 1220.51 214.47 1220.51 214.47 1187.6 247.39 1187.6 247.39 1154.68 280.3 1154.68 280.3 1187.6 346.13 1187.6 346.13 1154.68 379.04 1154.68" style="fill: #430a5f;"/>
    <rect x="313.21" y="1088.86" width="32.91" height="65.83" style="fill: #430a5f;"/>
    <rect x="214.47" y="1352.16" width="32.91" height="32.91" style="fill: #430a5f;"/>
    <rect x="247.39" y="1385.08" width="32.91" height="32.91" style="fill: #430a5f;"/>
    <rect x="280.3" y="1417.99" width="32.91" height="32.91" style="fill: #430a5f;"/>
    <rect x="313.21" y="1450.9" width="32.91" height="32.91" style="fill: #430a5f;"/>
    <rect x="444.87" y="1286.34" width="32.91" height="32.91" style="fill: #430a5f;"/>
    <rect x="411.95" y="1253.42" width="32.91" height="32.91" style="fill: #430a5f;"/>
    <rect x="379.04" y="1220.51" width="32.91" height="32.91" style="fill: #430a5f;"/>
    <rect x="477.78" y="1055.94" width="32.91" height="131.65" style="fill: #430a5f;"/>
    <rect x="510.69" y="1187.6" width="32.91" height="131.65" style="fill: #430a5f;"/>
    <rect x="741.09" y="990.12" width="32.91" height="32.91" style="fill: #430a5f;"/>
    <polygon points="642.35 825.55 642.35 858.47 510.7 858.47 510.7 1055.95 477.78 1055.95 477.78 825.55 642.35 825.55" style="fill: #5e0d86;"/>
    <rect x="708.17" y="924.29" width="32.91" height="32.91" style="fill: #5e0d86;"/>
    <rect x="675.26" y="891.38" width="32.91" height="32.91" style="fill: #5e0d86;"/>
    <rect x="642.35" y="858.47" width="32.91" height="32.91" style="fill: #5e0d86;"/>
    <rect x="741.09" y="957.2" width="32.91" height="32.91" style="fill: #5e0d86;"/>
    <polygon points="346.13 1154.68 346.13 1187.6 280.3 1187.6 280.3 1154.68 247.39 1154.68 247.39 1088.86 313.21 1088.86 313.21 1154.68 346.13 1154.68" style="fill: #690f96;"/>
    <polygon points="609.43 1549.64 609.43 1582.56 543.61 1582.56 543.61 1549.64 477.78 1549.64 477.78 1516.73 411.95 1516.73 411.95 1483.82 379.04 1483.82 379.04 1450.9 313.21 1450.9 313.21 1417.99 411.95 1417.99 411.95 1450.9 444.87 1450.9 444.87 1483.82 477.78 1483.82 477.78 1450.9 510.69 1450.9 510.69 1483.82 543.61 1483.82 543.61 1516.73 576.52 1516.73 576.52 1549.64 609.43 1549.64" style="fill: #690f96;"/>
    <polygon points="444.87 1088.86 444.87 1121.77 379.04 1121.77 379.04 1088.86 346.13 1088.86 346.13 1023.03 313.21 1023.03 313.21 957.2 280.3 957.2 280.3 924.29 247.39 924.29 247.39 891.38 313.21 891.38 313.21 924.29 346.13 924.29 346.13 957.2 379.04 957.2 379.04 990.12 411.95 990.12 411.95 1088.86 444.87 1088.86" style="fill: #7e12b5;"/>
    <rect x="247.39" y="924.29" width="32.91" height="32.91" style="fill: #9e17e2;"/>
    <rect x="280.3" y="957.2" width="32.91" height="65.83" style="fill: #9e17e2;"/>
    <rect x="313.21" y="1023.03" width="32.91" height="65.83" style="fill: #9e17e2;"/>
    <rect x="346.13" y="1088.86" width="32.91" height="32.91" style="fill: #9e17e2;"/>
    <rect x="181.56" y="628.07" width="32.91" height="65.83" style="fill: #e3b8f8;"/>
    <polygon points="280.3 759.72 280.3 792.64 247.39 792.64 247.39 825.55 214.47 825.55 214.47 792.64 181.56 792.64 181.56 693.9 214.47 693.9 214.47 726.81 247.39 726.81 247.39 759.72 280.3 759.72" style="fill: #dca7f6;"/>
    <rect x="280.3" y="792.64" width="32.91" height="65.83" style="fill: #dca7f6;"/>
    <rect x="247.39" y="792.64" width="32.91" height="32.91" style="fill: #e3b8f8;"/>
    <polygon points="477.78 1023.03 477.78 1154.68 444.87 1154.68 444.87 1055.94 411.95 1055.94 411.95 990.12 379.04 990.12 379.04 957.2 346.13 957.2 346.13 924.29 313.21 924.29 313.21 891.38 214.47 891.38 214.47 825.55 280.3 825.55 280.3 858.46 379.04 858.46 379.04 891.38 411.95 891.38 411.95 957.2 444.87 957.2 444.87 1023.03 477.78 1023.03" style="fill: #9e17e2;"/>
    <rect x="774" y="1121.77" width="32.91" height="65.83" style="fill: #b23eec;"/>
    <polygon points="774 1023.03 774 1220.51 741.09 1220.51 741.09 1121.77 708.18 1121.77 708.18 1220.51 741.09 1220.51 741.09 1253.43 708.18 1253.43 708.18 1286.34 675.26 1286.34 675.26 1088.86 708.18 1088.86 708.18 1055.95 741.09 1055.95 741.09 1023.03 774 1023.03" style="fill: #9e17e2;"/>
    <rect x="411.95" y="1055.94" width="32.91" height="32.91" style="fill: #b23eec;"/>
    <polygon points="708.17 726.81 708.17 792.64 675.26 792.64 675.26 759.72 642.35 759.72 642.35 726.81 609.43 726.81 609.43 792.64 576.52 792.64 576.52 628.07 609.43 628.07 609.43 595.16 642.35 595.16 642.35 660.98 675.26 660.98 675.26 726.81 708.17 726.81" style="fill: #b23eec;"/>
    <polygon points="576.52 1088.86 576.52 1121.77 543.61 1121.77 543.61 1187.6 510.69 1187.6 510.69 1055.94 543.61 1055.94 543.61 1088.86 576.52 1088.86" style="fill: #b23eec;"/>
    <rect x="576.52" y="1023.03" width="32.91" height="32.91" style="fill: #b23eec;"/>
    <rect x="543.61" y="957.2" width="32.91" height="65.83" style="fill: #b23eec;"/>
    <rect x="379.04" y="1253.42" width="32.91" height="32.91" style="fill: #9115cf;"/>
    <rect x="346.13" y="1220.51" width="32.91" height="32.91" style="fill: #9115cf;"/>
    <rect x="576.52" y="1187.6" width="32.91" height="131.65" style="fill: #9115cf;"/>
    <rect x="280.3" y="1319.25" width="32.91" height="32.91" style="fill: #b23eec;"/>
    <rect x="247.39" y="1286.34" width="32.91" height="32.91" style="fill: #b23eec;"/>
    <polygon points="346.13 1286.34 346.13 1352.16 313.21 1352.16 313.21 1319.25 280.3 1319.25 280.3 1286.34 247.39 1286.34 247.39 1253.42 313.21 1253.42 313.21 1286.34 346.13 1286.34" style="fill: #bc57ee;"/>
    <rect x="214.47" y="1319.25" width="65.83" height="32.91" style="fill: #c369f0;"/>
    <rect x="280.3" y="1352.16" width="65.83" height="32.91" style="fill: #c369f0;"/>
    <polygon points="411.95 1286.34 411.95 1319.25 379.04 1319.25 379.04 1352.16 346.13 1352.16 346.13 1286.34 411.95 1286.34" style="fill: #c369f0;"/>
    <rect x="313.21" y="1253.42" width="32.91" height="32.91" style="fill: #c369f0;"/>
    <polygon points="280.3 1220.51 280.3 1253.42 247.39 1253.42 247.39 1319.25 214.47 1319.25 214.47 1220.51 280.3 1220.51" style="fill: #dca7f6;"/>
    <polygon points="411.95 1319.25 411.95 1385.08 346.13 1385.08 346.13 1352.16 379.04 1352.16 379.04 1319.25 411.95 1319.25" style="fill: #dca7f6;"/>
    <rect x="247.39" y="1352.16" width="32.91" height="32.91" style="fill: #dca7f6;"/>
    <rect x="280.3" y="1220.51" width="65.83" height="32.91" style="fill: #e3b8f8;"/>
    <rect x="346.13" y="1253.42" width="32.91" height="32.91" style="fill: #e3b8f8;"/>
    <rect x="280.3" y="1385.08" width="131.65" height="32.91" style="fill: #e3b8f8;"/>
    <rect x="543.61" y="1286.34" width="32.91" height="32.91" style="fill: #b23eec;"/>
    <rect x="543.61" y="1187.6" width="32.91" height="32.91" style="fill: #b23eec;"/>
    <polygon points="675.26 957.2 675.26 1023.03 642.35 1023.03 642.35 1055.94 609.43 1055.94 609.43 1023.03 576.52 1023.03 576.52 924.29 642.35 924.29 642.35 957.2 675.26 957.2" style="fill: #bc57ee;"/>
    <polygon points="675.26 1023.03 675.26 1088.86 576.52 1088.86 576.52 1055.94 642.35 1055.94 642.35 1023.03 675.26 1023.03" style="fill: #c369f0;"/>
    <rect x="543.61" y="1023.03" width="32.91" height="32.91" style="fill: #c369f0;"/>
    <polygon points="609.43 891.38 609.43 924.29 576.52 924.29 576.52 957.2 543.61 957.2 543.61 891.38 609.43 891.38" style="fill: #c369f0;"/>
    <rect x="543.61" y="1121.77" width="32.91" height="32.91" style="fill: #c369f0;"/>
    <rect x="675.26" y="957.2" width="32.91" height="98.74" style="fill: #d18cf3;"/>
    <rect x="642.35" y="924.29" width="32.91" height="32.91" style="fill: #d18cf3;"/>
    <rect x="609.43" y="891.38" width="32.91" height="32.91" style="fill: #d18cf3;"/>
    <rect x="576.52" y="858.46" width="65.83" height="32.91" style="fill: #d18cf3;"/>
    <rect x="510.69" y="957.2" width="32.91" height="98.74" style="fill: #d18cf3;"/>
    <rect x="642.35" y="1187.6" width="32.91" height="98.74" style="fill: #c369f0;"/>
    <rect x="642.35" y="1088.86" width="32.91" height="98.74" style="fill: #dca7f6;"/>
    <rect x="675.26" y="1055.94" width="32.91" height="32.91" style="fill: #dca7f6;"/>
    <rect x="708.17" y="957.2" width="32.91" height="98.74" style="fill: #dca7f6;"/>
    <rect x="675.26" y="924.29" width="32.91" height="32.91" style="fill: #dca7f6;"/>
    <rect x="642.35" y="891.38" width="32.91" height="32.91" style="fill: #dca7f6;"/>
    <polygon points="576.52 858.46 576.52 891.38 543.61 891.38 543.61 957.2 510.69 957.2 510.69 858.46 576.52 858.46" style="fill: #dca7f6;"/>
    <rect x="576.52" y="1088.86" width="65.83" height="32.91" style="fill: #eed3fb;"/>
    <rect x="543.61" y="1055.94" width="32.91" height="32.91" style="fill: #eed3fb;"/>
    <rect x="543.61" y="1154.68" width="32.91" height="32.91" style="fill: #eed3fb;"/>
    <rect x="543.61" y="1220.51" width="32.91" height="65.83" style="fill: #eed3fb;"/>
    <polygon points="411.95 792.64 411.95 891.38 379.04 891.38 379.04 858.46 313.21 858.46 313.21 825.55 379.04 825.55 379.04 792.64 411.95 792.64" style="fill: #e3b8f8;"/>
    <rect x="411.95" y="891.38" width="32.91" height="65.83" style="fill: #dca7f6;"/>
    <rect x="444.87" y="957.2" width="32.91" height="65.83" style="fill: #dca7f6;"/>
    <polygon points="774 792.64 774 825.55 741.09 825.55 741.09 924.29 708.18 924.29 708.18 792.64 774 792.64" style="fill: #b23eec;"/>
    <rect x="609.43" y="726.81" width="32.91" height="32.91" style="fill: #c978f1;"/>
    <rect x="741.09" y="726.81" width="32.91" height="65.83" style="fill: #dca7f6;"/>
    <rect x="642.35" y="825.55" width="32.91" height="32.91" style="fill: #c369f0;"/>
    <rect x="675.26" y="858.47" width="32.91" height="32.91" style="fill: #c369f0;"/>
  </g>
  <rect y="167" width="1548" height="1548" style="fill: none;"/>
</svg>